<mxfile host="app.diagrams.net" modified="2024-04-11T17:07:01.073Z" agent="Mozilla/5.0 (Macintosh; Intel Mac OS X 10_15_7) AppleWebKit/605.1.15 (KHTML, like Gecko) Version/17.4.1 Safari/605.1.15" etag="surVs2iuD8eddNZukexb" version="24.2.3" type="device">
  <diagram name="Page-1" id="38QwZTrRt14t735NKN4m">
    <mxGraphModel dx="2463" dy="2267" grid="1" gridSize="10" guides="1" tooltips="1" connect="1" arrows="1" fold="1" page="1" pageScale="1" pageWidth="827" pageHeight="1169" math="0" shadow="0">
      <root>
        <mxCell id="0" />
        <mxCell id="1" parent="0" />
        <mxCell id="NQqdmti2_ZRtqbnhM-zB-2" value="Input Key Sizes for multiple different keys" style="ellipse;whiteSpace=wrap;html=1;" parent="1" vertex="1">
          <mxGeometry x="260" y="140" width="120" height="60" as="geometry" />
        </mxCell>
        <mxCell id="NQqdmti2_ZRtqbnhM-zB-22" value="" style="edgeStyle=orthogonalEdgeStyle;rounded=0;orthogonalLoop=1;jettySize=auto;html=1;dashed=1;startArrow=open;startFill=0;endArrow=none;endFill=0;" parent="1" source="NQqdmti2_ZRtqbnhM-zB-3" target="NQqdmti2_ZRtqbnhM-zB-6" edge="1">
          <mxGeometry relative="1" as="geometry">
            <Array as="points">
              <mxPoint x="450" y="260" />
            </Array>
          </mxGeometry>
        </mxCell>
        <mxCell id="NQqdmti2_ZRtqbnhM-zB-3" value="Input Private key batch" style="ellipse;whiteSpace=wrap;html=1;" parent="1" vertex="1">
          <mxGeometry x="260" y="230" width="120" height="60" as="geometry" />
        </mxCell>
        <mxCell id="NQqdmti2_ZRtqbnhM-zB-4" value="Input message batch and no. of messages in batch." style="ellipse;whiteSpace=wrap;html=1;" parent="1" vertex="1">
          <mxGeometry x="260" y="310" width="120" height="60" as="geometry" />
        </mxCell>
        <mxCell id="NQqdmti2_ZRtqbnhM-zB-13" value="" style="edgeStyle=orthogonalEdgeStyle;rounded=0;orthogonalLoop=1;jettySize=auto;html=1;dashed=1;strokeWidth=1;endArrow=open;endFill=0;" parent="1" source="NQqdmti2_ZRtqbnhM-zB-5" target="NQqdmti2_ZRtqbnhM-zB-2" edge="1">
          <mxGeometry relative="1" as="geometry" />
        </mxCell>
        <mxCell id="pRXhWldQeaRsTRkaZNLs-4" style="edgeStyle=orthogonalEdgeStyle;rounded=0;orthogonalLoop=1;jettySize=auto;html=1;entryX=0.5;entryY=1;entryDx=0;entryDy=0;exitX=1;exitY=0;exitDx=0;exitDy=0;endArrow=open;endFill=0;" parent="1" source="NQqdmti2_ZRtqbnhM-zB-5" target="pRXhWldQeaRsTRkaZNLs-1" edge="1">
          <mxGeometry relative="1" as="geometry">
            <Array as="points">
              <mxPoint x="550" y="149" />
            </Array>
          </mxGeometry>
        </mxCell>
        <mxCell id="pRXhWldQeaRsTRkaZNLs-9" style="rounded=0;orthogonalLoop=1;jettySize=auto;html=1;entryX=0;entryY=1;entryDx=0;entryDy=0;endArrow=openThin;endFill=0;" parent="1" source="NQqdmti2_ZRtqbnhM-zB-5" target="TdwYZP4y8rGgzh-OMcAw-28" edge="1">
          <mxGeometry relative="1" as="geometry" />
        </mxCell>
        <mxCell id="NQqdmti2_ZRtqbnhM-zB-5" value="Run Key Generation Benchmarking" style="ellipse;whiteSpace=wrap;html=1;" parent="1" vertex="1">
          <mxGeometry x="450" y="140" width="120" height="60" as="geometry" />
        </mxCell>
        <mxCell id="NQqdmti2_ZRtqbnhM-zB-15" value="" style="edgeStyle=orthogonalEdgeStyle;rounded=0;orthogonalLoop=1;jettySize=auto;html=1;dashed=1;endArrow=open;endFill=0;" parent="1" source="NQqdmti2_ZRtqbnhM-zB-6" target="NQqdmti2_ZRtqbnhM-zB-4" edge="1">
          <mxGeometry relative="1" as="geometry">
            <Array as="points">
              <mxPoint x="450" y="340" />
            </Array>
          </mxGeometry>
        </mxCell>
        <mxCell id="NQqdmti2_ZRtqbnhM-zB-35" style="edgeStyle=orthogonalEdgeStyle;rounded=0;orthogonalLoop=1;jettySize=auto;html=1;entryX=0.5;entryY=0;entryDx=0;entryDy=0;endArrow=none;endFill=0;dashed=1;startArrow=open;startFill=0;" parent="1" source="NQqdmti2_ZRtqbnhM-zB-6" target="NQqdmti2_ZRtqbnhM-zB-7" edge="1">
          <mxGeometry relative="1" as="geometry" />
        </mxCell>
        <mxCell id="TdwYZP4y8rGgzh-OMcAw-29" style="edgeStyle=none;curved=0;rounded=0;orthogonalLoop=1;jettySize=auto;html=1;entryX=0.5;entryY=1;entryDx=0;entryDy=0;fontSize=12;startSize=8;endSize=8;endArrow=openThin;endFill=0;" parent="1" source="NQqdmti2_ZRtqbnhM-zB-6" target="TdwYZP4y8rGgzh-OMcAw-28" edge="1">
          <mxGeometry relative="1" as="geometry">
            <Array as="points">
              <mxPoint x="510" y="250" />
              <mxPoint x="780" y="250" />
            </Array>
          </mxGeometry>
        </mxCell>
        <mxCell id="TdwYZP4y8rGgzh-OMcAw-30" style="edgeStyle=none;curved=0;rounded=0;orthogonalLoop=1;jettySize=auto;html=1;exitX=0;exitY=0;exitDx=0;exitDy=0;entryX=0.5;entryY=1;entryDx=0;entryDy=0;fontSize=12;startSize=8;endSize=8;strokeColor=default;endArrow=openThin;endFill=0;" parent="1" source="NQqdmti2_ZRtqbnhM-zB-6" target="NQqdmti2_ZRtqbnhM-zB-26" edge="1">
          <mxGeometry relative="1" as="geometry">
            <Array as="points">
              <mxPoint x="467" y="240" />
              <mxPoint x="630" y="240" />
            </Array>
          </mxGeometry>
        </mxCell>
        <mxCell id="NQqdmti2_ZRtqbnhM-zB-6" value="Run Signature Creation Benchmarking" style="ellipse;whiteSpace=wrap;html=1;" parent="1" vertex="1">
          <mxGeometry x="450" y="270" width="120" height="60" as="geometry" />
        </mxCell>
        <mxCell id="NQqdmti2_ZRtqbnhM-zB-43" style="edgeStyle=orthogonalEdgeStyle;rounded=0;orthogonalLoop=1;jettySize=auto;html=1;entryX=0.95;entryY=0.267;entryDx=0;entryDy=0;dashed=1;endArrow=open;endFill=0;entryPerimeter=0;" parent="1" source="NQqdmti2_ZRtqbnhM-zB-7" target="NQqdmti2_ZRtqbnhM-zB-11" edge="1">
          <mxGeometry relative="1" as="geometry">
            <Array as="points">
              <mxPoint x="610" y="536" />
            </Array>
          </mxGeometry>
        </mxCell>
        <mxCell id="NQqdmti2_ZRtqbnhM-zB-7" value="Select Scheme" style="ellipse;whiteSpace=wrap;html=1;" parent="1" vertex="1">
          <mxGeometry x="570" y="380" width="120" height="60" as="geometry" />
        </mxCell>
        <mxCell id="NQqdmti2_ZRtqbnhM-zB-8" value="Input public key batch" style="ellipse;whiteSpace=wrap;html=1;" parent="1" vertex="1">
          <mxGeometry x="260" y="450" width="120" height="60" as="geometry" />
        </mxCell>
        <mxCell id="NQqdmti2_ZRtqbnhM-zB-9" value="Input message batch" style="ellipse;whiteSpace=wrap;html=1;" parent="1" vertex="1">
          <mxGeometry x="260" y="520" width="120" height="60" as="geometry" />
        </mxCell>
        <mxCell id="NQqdmti2_ZRtqbnhM-zB-10" value="Input Signature batch" style="ellipse;whiteSpace=wrap;html=1;" parent="1" vertex="1">
          <mxGeometry x="260" y="590" width="120" height="60" as="geometry" />
        </mxCell>
        <mxCell id="NQqdmti2_ZRtqbnhM-zB-23" value="" style="edgeStyle=orthogonalEdgeStyle;rounded=0;orthogonalLoop=1;jettySize=auto;html=1;dashed=1;endArrow=open;endFill=0;" parent="1" source="NQqdmti2_ZRtqbnhM-zB-11" target="NQqdmti2_ZRtqbnhM-zB-9" edge="1">
          <mxGeometry relative="1" as="geometry" />
        </mxCell>
        <mxCell id="NQqdmti2_ZRtqbnhM-zB-24" style="edgeStyle=orthogonalEdgeStyle;rounded=0;orthogonalLoop=1;jettySize=auto;html=1;entryX=1;entryY=0.5;entryDx=0;entryDy=0;startArrow=none;startFill=0;dashed=1;endArrow=open;endFill=0;" parent="1" source="NQqdmti2_ZRtqbnhM-zB-11" target="NQqdmti2_ZRtqbnhM-zB-8" edge="1">
          <mxGeometry relative="1" as="geometry">
            <Array as="points">
              <mxPoint x="530" y="480" />
            </Array>
          </mxGeometry>
        </mxCell>
        <mxCell id="NQqdmti2_ZRtqbnhM-zB-25" style="edgeStyle=orthogonalEdgeStyle;rounded=0;orthogonalLoop=1;jettySize=auto;html=1;endArrow=open;endFill=0;dashed=1;" parent="1" source="NQqdmti2_ZRtqbnhM-zB-11" target="NQqdmti2_ZRtqbnhM-zB-10" edge="1">
          <mxGeometry relative="1" as="geometry">
            <Array as="points">
              <mxPoint x="530" y="620" />
            </Array>
          </mxGeometry>
        </mxCell>
        <mxCell id="NQqdmti2_ZRtqbnhM-zB-45" style="edgeStyle=orthogonalEdgeStyle;rounded=0;orthogonalLoop=1;jettySize=auto;html=1;entryX=0;entryY=0.5;entryDx=0;entryDy=0;endArrow=open;endFill=0;" parent="1" source="NQqdmti2_ZRtqbnhM-zB-11" target="NQqdmti2_ZRtqbnhM-zB-44" edge="1">
          <mxGeometry relative="1" as="geometry" />
        </mxCell>
        <mxCell id="NQqdmti2_ZRtqbnhM-zB-11" value="Run Signature Verification Benchmarking" style="ellipse;whiteSpace=wrap;html=1;" parent="1" vertex="1">
          <mxGeometry x="470" y="520" width="120" height="60" as="geometry" />
        </mxCell>
        <mxCell id="NQqdmti2_ZRtqbnhM-zB-26" value="Export Signature (Batch)" style="ellipse;whiteSpace=wrap;html=1;" parent="1" vertex="1">
          <mxGeometry x="570" y="30" width="120" height="60" as="geometry" />
        </mxCell>
        <mxCell id="5PANG7gfDIuG6xv0QTRK-1" style="edgeStyle=none;curved=0;rounded=0;orthogonalLoop=1;jettySize=auto;html=1;entryX=0;entryY=0;entryDx=0;entryDy=0;fontSize=12;startSize=8;endSize=8;endArrow=none;endFill=0;startArrow=block;startFill=0;" parent="1" source="NQqdmti2_ZRtqbnhM-zB-28" target="NQqdmti2_ZRtqbnhM-zB-26" edge="1">
          <mxGeometry relative="1" as="geometry">
            <Array as="points">
              <mxPoint x="587" y="-60" />
            </Array>
          </mxGeometry>
        </mxCell>
        <mxCell id="5PANG7gfDIuG6xv0QTRK-2" style="edgeStyle=none;curved=0;rounded=0;orthogonalLoop=1;jettySize=auto;html=1;entryX=1;entryY=0;entryDx=0;entryDy=0;fontSize=12;startSize=8;endSize=8;endArrow=none;endFill=0;startArrow=block;startFill=0;" parent="1" source="NQqdmti2_ZRtqbnhM-zB-28" target="TdwYZP4y8rGgzh-OMcAw-28" edge="1">
          <mxGeometry relative="1" as="geometry">
            <Array as="points">
              <mxPoint x="823" y="-60" />
            </Array>
          </mxGeometry>
        </mxCell>
        <mxCell id="NQqdmti2_ZRtqbnhM-zB-28" value="Export to file" style="ellipse;whiteSpace=wrap;html=1;" parent="1" vertex="1">
          <mxGeometry x="650" y="-90" width="120" height="60" as="geometry" />
        </mxCell>
        <mxCell id="NQqdmti2_ZRtqbnhM-zB-36" value="PKCS#1 v1.5 Signature." style="ellipse;whiteSpace=wrap;html=1;" parent="1" vertex="1">
          <mxGeometry x="800" y="290" width="120" height="60" as="geometry" />
        </mxCell>
        <mxCell id="NQqdmti2_ZRtqbnhM-zB-41" style="edgeStyle=orthogonalEdgeStyle;rounded=0;orthogonalLoop=1;jettySize=auto;html=1;entryX=1;entryY=1;entryDx=0;entryDy=0;dashed=1;dashPattern=1 2;endArrow=open;endFill=0;" parent="1" source="NQqdmti2_ZRtqbnhM-zB-37" target="NQqdmti2_ZRtqbnhM-zB-7" edge="1">
          <mxGeometry relative="1" as="geometry">
            <Array as="points">
              <mxPoint x="810" y="431" />
            </Array>
          </mxGeometry>
        </mxCell>
        <mxCell id="NQqdmti2_ZRtqbnhM-zB-37" value="ANSI X9.31 rDSA" style="ellipse;whiteSpace=wrap;html=1;" parent="1" vertex="1">
          <mxGeometry x="810" y="370" width="120" height="60" as="geometry" />
        </mxCell>
        <mxCell id="NQqdmti2_ZRtqbnhM-zB-42" style="edgeStyle=orthogonalEdgeStyle;rounded=0;orthogonalLoop=1;jettySize=auto;html=1;entryX=0.5;entryY=1;entryDx=0;entryDy=0;dashed=1;dashPattern=1 2;endArrow=open;endFill=0;" parent="1" source="NQqdmti2_ZRtqbnhM-zB-38" target="NQqdmti2_ZRtqbnhM-zB-7" edge="1">
          <mxGeometry relative="1" as="geometry" />
        </mxCell>
        <mxCell id="NQqdmti2_ZRtqbnhM-zB-38" value="ISO/IEC 9796-2 Scheme 1" style="ellipse;whiteSpace=wrap;html=1;" parent="1" vertex="1">
          <mxGeometry x="800" y="470" width="120" height="60" as="geometry" />
        </mxCell>
        <mxCell id="NQqdmti2_ZRtqbnhM-zB-39" style="edgeStyle=orthogonalEdgeStyle;rounded=0;orthogonalLoop=1;jettySize=auto;html=1;dashed=1;dashPattern=1 2;endArrow=open;endFill=0;entryX=0.767;entryY=0.05;entryDx=0;entryDy=0;entryPerimeter=0;exitX=0;exitY=1;exitDx=0;exitDy=0;" parent="1" source="NQqdmti2_ZRtqbnhM-zB-36" target="NQqdmti2_ZRtqbnhM-zB-7" edge="1">
          <mxGeometry relative="1" as="geometry">
            <mxPoint x="660" y="380" as="targetPoint" />
            <Array as="points">
              <mxPoint x="818" y="350" />
              <mxPoint x="662" y="350" />
            </Array>
          </mxGeometry>
        </mxCell>
        <mxCell id="5PANG7gfDIuG6xv0QTRK-9" style="edgeStyle=none;curved=0;rounded=0;orthogonalLoop=1;jettySize=auto;html=1;fontSize=12;startSize=8;endSize=8;endArrow=openThin;endFill=0;exitX=1;exitY=0.5;exitDx=0;exitDy=0;" parent="1" source="5PANG7gfDIuG6xv0QTRK-7" edge="1">
          <mxGeometry relative="1" as="geometry">
            <mxPoint x="1260" y="-70" as="targetPoint" />
            <Array as="points">
              <mxPoint x="1260" y="670" />
            </Array>
          </mxGeometry>
        </mxCell>
        <mxCell id="NQqdmti2_ZRtqbnhM-zB-44" value="View Benchmarking Results" style="ellipse;whiteSpace=wrap;html=1;" parent="1" vertex="1">
          <mxGeometry x="670" y="570" width="120" height="60" as="geometry" />
        </mxCell>
        <mxCell id="NQqdmti2_ZRtqbnhM-zB-63" style="edgeStyle=orthogonalEdgeStyle;rounded=0;orthogonalLoop=1;jettySize=auto;html=1;entryX=0;entryY=0.5;entryDx=0;entryDy=0;endArrow=open;endFill=0;" parent="1" target="NQqdmti2_ZRtqbnhM-zB-7" edge="1">
          <mxGeometry relative="1" as="geometry">
            <mxPoint x="110" y="270" as="sourcePoint" />
            <Array as="points">
              <mxPoint x="70" y="270" />
              <mxPoint x="70" y="410" />
            </Array>
          </mxGeometry>
        </mxCell>
        <mxCell id="5PANG7gfDIuG6xv0QTRK-10" style="edgeStyle=none;curved=0;rounded=0;orthogonalLoop=1;jettySize=auto;html=1;entryX=0;entryY=0.5;entryDx=0;entryDy=0;fontSize=12;startSize=8;endSize=8;endArrow=openThin;endFill=0;" parent="1" target="TdwYZP4y8rGgzh-OMcAw-19" edge="1">
          <mxGeometry relative="1" as="geometry">
            <mxPoint x="70" y="270" as="sourcePoint" />
            <Array as="points">
              <mxPoint x="290" y="210" />
            </Array>
          </mxGeometry>
        </mxCell>
        <mxCell id="NQqdmti2_ZRtqbnhM-zB-46" value="Signer" style="shape=umlActor;verticalLabelPosition=bottom;verticalAlign=top;html=1;outlineConnect=0;" parent="1" vertex="1">
          <mxGeometry x="30" y="232.5" width="30" height="60" as="geometry" />
        </mxCell>
        <mxCell id="NQqdmti2_ZRtqbnhM-zB-47" value="Verifier" style="shape=umlActor;verticalLabelPosition=bottom;verticalAlign=top;html=1;outlineConnect=0;" parent="1" vertex="1">
          <mxGeometry x="30" y="510" width="30" height="60" as="geometry" />
        </mxCell>
        <mxCell id="NQqdmti2_ZRtqbnhM-zB-50" value="" style="endArrow=open;html=1;rounded=0;entryX=0;entryY=0.5;entryDx=0;entryDy=0;endFill=0;" parent="1" target="NQqdmti2_ZRtqbnhM-zB-2" edge="1">
          <mxGeometry width="50" height="50" relative="1" as="geometry">
            <mxPoint x="70" y="270" as="sourcePoint" />
            <mxPoint x="150" y="210" as="targetPoint" />
          </mxGeometry>
        </mxCell>
        <mxCell id="NQqdmti2_ZRtqbnhM-zB-51" value="" style="endArrow=open;html=1;rounded=0;endFill=0;" parent="1" edge="1">
          <mxGeometry width="50" height="50" relative="1" as="geometry">
            <mxPoint x="70" y="270" as="sourcePoint" />
            <mxPoint x="260" y="270" as="targetPoint" />
          </mxGeometry>
        </mxCell>
        <mxCell id="NQqdmti2_ZRtqbnhM-zB-52" value="" style="endArrow=open;html=1;rounded=0;entryX=0;entryY=0.5;entryDx=0;entryDy=0;endFill=0;" parent="1" target="NQqdmti2_ZRtqbnhM-zB-4" edge="1">
          <mxGeometry width="50" height="50" relative="1" as="geometry">
            <mxPoint x="70" y="270" as="sourcePoint" />
            <mxPoint x="270" y="280" as="targetPoint" />
          </mxGeometry>
        </mxCell>
        <mxCell id="NQqdmti2_ZRtqbnhM-zB-53" value="" style="endArrow=open;html=1;rounded=0;entryX=0;entryY=0.5;entryDx=0;entryDy=0;endFill=0;" parent="1" target="NQqdmti2_ZRtqbnhM-zB-8" edge="1">
          <mxGeometry width="50" height="50" relative="1" as="geometry">
            <mxPoint x="70" y="550" as="sourcePoint" />
            <mxPoint x="260" y="450" as="targetPoint" />
          </mxGeometry>
        </mxCell>
        <mxCell id="NQqdmti2_ZRtqbnhM-zB-54" value="" style="endArrow=open;html=1;rounded=0;endFill=0;" parent="1" edge="1">
          <mxGeometry width="50" height="50" relative="1" as="geometry">
            <mxPoint x="70" y="550" as="sourcePoint" />
            <mxPoint x="260" y="550" as="targetPoint" />
          </mxGeometry>
        </mxCell>
        <mxCell id="NQqdmti2_ZRtqbnhM-zB-55" value="" style="endArrow=open;html=1;rounded=0;entryX=0;entryY=0.5;entryDx=0;entryDy=0;endFill=0;" parent="1" edge="1">
          <mxGeometry width="50" height="50" relative="1" as="geometry">
            <mxPoint x="70" y="550" as="sourcePoint" />
            <mxPoint x="260" y="620" as="targetPoint" />
          </mxGeometry>
        </mxCell>
        <mxCell id="NQqdmti2_ZRtqbnhM-zB-64" style="edgeStyle=orthogonalEdgeStyle;rounded=0;orthogonalLoop=1;jettySize=auto;html=1;entryX=0.025;entryY=0.717;entryDx=0;entryDy=0;entryPerimeter=0;endArrow=open;endFill=0;" parent="1" target="NQqdmti2_ZRtqbnhM-zB-7" edge="1">
          <mxGeometry relative="1" as="geometry">
            <mxPoint x="110" y="550" as="sourcePoint" />
            <Array as="points">
              <mxPoint x="70" y="550" />
              <mxPoint x="70" y="424" />
            </Array>
          </mxGeometry>
        </mxCell>
        <mxCell id="NQqdmti2_ZRtqbnhM-zB-65" value="&amp;lt;&amp;lt;include&amp;gt;&amp;gt;" style="text;html=1;strokeColor=none;fillColor=none;align=center;verticalAlign=middle;whiteSpace=wrap;rounded=0;" parent="1" vertex="1">
          <mxGeometry x="390" y="230" width="60" height="30" as="geometry" />
        </mxCell>
        <mxCell id="NQqdmti2_ZRtqbnhM-zB-66" value="&amp;lt;&amp;lt;include&amp;gt;&amp;gt;" style="text;html=1;strokeColor=none;fillColor=none;align=center;verticalAlign=middle;whiteSpace=wrap;rounded=0;" parent="1" vertex="1">
          <mxGeometry x="390" y="140" width="60" height="30" as="geometry" />
        </mxCell>
        <mxCell id="NQqdmti2_ZRtqbnhM-zB-67" value="&amp;lt;&amp;lt;include&amp;gt;&amp;gt;" style="text;html=1;strokeColor=none;fillColor=none;align=center;verticalAlign=middle;whiteSpace=wrap;rounded=0;" parent="1" vertex="1">
          <mxGeometry x="384" y="310" width="60" height="30" as="geometry" />
        </mxCell>
        <mxCell id="NQqdmti2_ZRtqbnhM-zB-69" value="&amp;lt;&amp;lt;include&amp;gt;&amp;gt;" style="text;html=1;strokeColor=none;fillColor=none;align=center;verticalAlign=middle;whiteSpace=wrap;rounded=0;" parent="1" vertex="1">
          <mxGeometry x="400" y="450" width="60" height="30" as="geometry" />
        </mxCell>
        <mxCell id="NQqdmti2_ZRtqbnhM-zB-70" value="&amp;lt;&amp;lt;include&amp;gt;&amp;gt;" style="text;html=1;strokeColor=none;fillColor=none;align=center;verticalAlign=middle;whiteSpace=wrap;rounded=0;" parent="1" vertex="1">
          <mxGeometry x="400" y="520" width="60" height="30" as="geometry" />
        </mxCell>
        <mxCell id="NQqdmti2_ZRtqbnhM-zB-71" value="&amp;lt;&amp;lt;include&amp;gt;&amp;gt;" style="text;html=1;strokeColor=none;fillColor=none;align=center;verticalAlign=middle;whiteSpace=wrap;rounded=0;" parent="1" vertex="1">
          <mxGeometry x="400" y="590" width="60" height="30" as="geometry" />
        </mxCell>
        <mxCell id="NQqdmti2_ZRtqbnhM-zB-72" value="&amp;lt;&amp;lt;include&amp;gt;&amp;gt;" style="text;html=1;strokeColor=none;fillColor=none;align=center;verticalAlign=middle;whiteSpace=wrap;rounded=0;" parent="1" vertex="1">
          <mxGeometry x="550" y="330" width="60" height="30" as="geometry" />
        </mxCell>
        <mxCell id="NQqdmti2_ZRtqbnhM-zB-73" value="&amp;lt;&amp;lt;include&amp;gt;&amp;gt;" style="text;html=1;strokeColor=none;fillColor=none;align=center;verticalAlign=middle;whiteSpace=wrap;rounded=0;" parent="1" vertex="1">
          <mxGeometry x="540" y="485" width="60" height="30" as="geometry" />
        </mxCell>
        <mxCell id="NQqdmti2_ZRtqbnhM-zB-74" value="[Select PKCS Option]&lt;br&gt;&amp;lt;&amp;lt;extend&amp;gt;&amp;gt;&lt;br&gt;(#1 v1.5 functions)" style="text;html=1;strokeColor=none;fillColor=none;align=center;verticalAlign=middle;whiteSpace=wrap;rounded=0;" parent="1" vertex="1">
          <mxGeometry x="680" y="290" width="120" height="60" as="geometry" />
        </mxCell>
        <mxCell id="NQqdmti2_ZRtqbnhM-zB-75" value="[Select ANSI Option]&lt;br&gt;&amp;lt;&amp;lt;extend&amp;gt;&amp;gt;&lt;br&gt;(X9.31 rDSA functions)" style="text;html=1;strokeColor=none;fillColor=none;align=center;verticalAlign=middle;whiteSpace=wrap;rounded=0;" parent="1" vertex="1">
          <mxGeometry x="690" y="370" width="120" height="60" as="geometry" />
        </mxCell>
        <mxCell id="NQqdmti2_ZRtqbnhM-zB-76" value="[Select ISO/IEC Option]&lt;br&gt;&amp;lt;&amp;lt;extend&amp;gt;&amp;gt;&lt;br&gt;(9796-2 Scheme 1 functions)" style="text;html=1;strokeColor=none;fillColor=none;align=center;verticalAlign=middle;whiteSpace=wrap;rounded=0;" parent="1" vertex="1">
          <mxGeometry x="670" y="440" width="140" height="60" as="geometry" />
        </mxCell>
        <mxCell id="NQqdmti2_ZRtqbnhM-zB-77" value="File System" style="shape=umlActor;verticalLabelPosition=bottom;verticalAlign=top;html=1;outlineConnect=0;" parent="1" vertex="1">
          <mxGeometry x="1250" y="-160" width="30" height="60" as="geometry" />
        </mxCell>
        <mxCell id="TdwYZP4y8rGgzh-OMcAw-12" style="edgeStyle=none;curved=0;rounded=0;orthogonalLoop=1;jettySize=auto;html=1;entryX=0;entryY=0.5;entryDx=0;entryDy=0;fontSize=12;startSize=8;endSize=8;endArrow=none;endFill=0;startArrow=openThin;startFill=0;dashed=1;dashPattern=1 2;" parent="1" source="TdwYZP4y8rGgzh-OMcAw-1" target="TdwYZP4y8rGgzh-OMcAw-5" edge="1">
          <mxGeometry relative="1" as="geometry">
            <Array as="points">
              <mxPoint x="264" y="90" />
            </Array>
          </mxGeometry>
        </mxCell>
        <mxCell id="TdwYZP4y8rGgzh-OMcAw-16" style="edgeStyle=none;curved=0;rounded=0;orthogonalLoop=1;jettySize=auto;html=1;exitX=1;exitY=0.5;exitDx=0;exitDy=0;entryX=0.5;entryY=0;entryDx=0;entryDy=0;fontSize=12;startSize=8;endSize=8;endArrow=openThin;endFill=0;dashed=1;" parent="1" source="TdwYZP4y8rGgzh-OMcAw-1" target="NQqdmti2_ZRtqbnhM-zB-5" edge="1">
          <mxGeometry relative="1" as="geometry">
            <Array as="points">
              <mxPoint x="510" y="-30" />
            </Array>
          </mxGeometry>
        </mxCell>
        <mxCell id="TdwYZP4y8rGgzh-OMcAw-1" value="Select choice of e for each selected key" style="ellipse;whiteSpace=wrap;html=1;" parent="1" vertex="1">
          <mxGeometry x="204" y="-60" width="120" height="60" as="geometry" />
        </mxCell>
        <mxCell id="TdwYZP4y8rGgzh-OMcAw-14" style="edgeStyle=none;curved=0;rounded=0;orthogonalLoop=1;jettySize=auto;html=1;entryX=0.5;entryY=0;entryDx=0;entryDy=0;fontSize=12;endArrow=openThin;endFill=0;dashed=1;dashPattern=1 2;" parent="1" source="TdwYZP4y8rGgzh-OMcAw-3" target="TdwYZP4y8rGgzh-OMcAw-1" edge="1">
          <mxGeometry relative="1" as="geometry">
            <Array as="points">
              <mxPoint x="264" y="-160" />
            </Array>
          </mxGeometry>
        </mxCell>
        <mxCell id="TdwYZP4y8rGgzh-OMcAw-3" value="Small e" style="ellipse;whiteSpace=wrap;html=1;" parent="1" vertex="1">
          <mxGeometry x="330" y="-190" width="120" height="60" as="geometry" />
        </mxCell>
        <mxCell id="TdwYZP4y8rGgzh-OMcAw-5" value="Arbitrary e" style="ellipse;whiteSpace=wrap;html=1;" parent="1" vertex="1">
          <mxGeometry x="360" y="60" width="120" height="60" as="geometry" />
        </mxCell>
        <mxCell id="TdwYZP4y8rGgzh-OMcAw-8" value="[Select &quot;Arbitrary e&quot; Option]&lt;br&gt;&amp;lt;&amp;lt;extend&amp;gt;&amp;gt;&lt;br&gt;(Arbitrary&amp;nbsp;e functions)" style="text;html=1;strokeColor=none;fillColor=none;align=center;verticalAlign=middle;whiteSpace=wrap;rounded=0;" parent="1" vertex="1">
          <mxGeometry x="264" width="120" height="60" as="geometry" />
        </mxCell>
        <mxCell id="TdwYZP4y8rGgzh-OMcAw-15" value="[Select &quot;Small e&quot; Option]&lt;br&gt;&amp;lt;&amp;lt;extend&amp;gt;&amp;gt;&lt;br&gt;(small e functions)" style="text;html=1;strokeColor=none;fillColor=none;align=center;verticalAlign=middle;whiteSpace=wrap;rounded=0;" parent="1" vertex="1">
          <mxGeometry x="260" y="-130" width="120" height="60" as="geometry" />
        </mxCell>
        <mxCell id="TdwYZP4y8rGgzh-OMcAw-17" value="&amp;lt;&amp;lt;include&amp;gt;&amp;gt;" style="text;html=1;strokeColor=none;fillColor=none;align=center;verticalAlign=middle;whiteSpace=wrap;rounded=0;" parent="1" vertex="1">
          <mxGeometry x="410" y="-60" width="60" height="30" as="geometry" />
        </mxCell>
        <mxCell id="TdwYZP4y8rGgzh-OMcAw-18" style="edgeStyle=none;curved=0;rounded=0;orthogonalLoop=1;jettySize=auto;html=1;entryX=0;entryY=0.5;entryDx=0;entryDy=0;fontSize=12;startSize=8;endSize=8;endArrow=none;endFill=0;startArrow=openThin;startFill=0;dashed=1;dashPattern=1 2;" parent="1" source="TdwYZP4y8rGgzh-OMcAw-19" target="TdwYZP4y8rGgzh-OMcAw-22" edge="1">
          <mxGeometry relative="1" as="geometry">
            <Array as="points">
              <mxPoint x="950" y="380" />
            </Array>
          </mxGeometry>
        </mxCell>
        <mxCell id="TdwYZP4y8rGgzh-OMcAw-19" value="Select parameter choice" style="ellipse;whiteSpace=wrap;html=1;" parent="1" vertex="1">
          <mxGeometry x="890" y="180" width="120" height="60" as="geometry" />
        </mxCell>
        <mxCell id="TdwYZP4y8rGgzh-OMcAw-20" style="edgeStyle=none;curved=0;rounded=0;orthogonalLoop=1;jettySize=auto;html=1;entryX=0.5;entryY=0;entryDx=0;entryDy=0;fontSize=12;endArrow=openThin;endFill=0;dashed=1;dashPattern=1 2;" parent="1" source="TdwYZP4y8rGgzh-OMcAw-21" target="TdwYZP4y8rGgzh-OMcAw-19" edge="1">
          <mxGeometry relative="1" as="geometry">
            <Array as="points">
              <mxPoint x="950" y="60" />
            </Array>
          </mxGeometry>
        </mxCell>
        <mxCell id="TdwYZP4y8rGgzh-OMcAw-26" style="edgeStyle=none;curved=0;rounded=0;orthogonalLoop=1;jettySize=auto;html=1;exitX=0;exitY=0;exitDx=0;exitDy=0;fontSize=12;startSize=8;endSize=8;endArrow=openThin;endFill=0;entryX=1;entryY=0;entryDx=0;entryDy=0;dashed=1;" parent="1" source="TdwYZP4y8rGgzh-OMcAw-21" target="NQqdmti2_ZRtqbnhM-zB-6" edge="1">
          <mxGeometry relative="1" as="geometry">
            <mxPoint x="1044.1995998592165" y="28.056471042283903" as="sourcePoint" />
            <mxPoint x="600" y="280" as="targetPoint" />
            <Array as="points">
              <mxPoint x="880" y="40" />
              <mxPoint x="880" y="279" />
              <mxPoint x="700" y="280" />
            </Array>
          </mxGeometry>
        </mxCell>
        <mxCell id="TdwYZP4y8rGgzh-OMcAw-21" value="standard parameters" style="ellipse;whiteSpace=wrap;html=1;" parent="1" vertex="1">
          <mxGeometry x="1010" y="30" width="120" height="60" as="geometry" />
        </mxCell>
        <mxCell id="TdwYZP4y8rGgzh-OMcAw-22" value="provably secure parameters" style="ellipse;whiteSpace=wrap;html=1;" parent="1" vertex="1">
          <mxGeometry x="1040" y="350" width="120" height="60" as="geometry" />
        </mxCell>
        <mxCell id="TdwYZP4y8rGgzh-OMcAw-23" value="[Select &quot;provable parameters&quot; Option]&lt;br&gt;&amp;lt;&amp;lt;extend&amp;gt;&amp;gt;&lt;br&gt;(provably secure parameters functions)" style="text;html=1;strokeColor=none;fillColor=none;align=center;verticalAlign=middle;whiteSpace=wrap;rounded=0;" parent="1" vertex="1">
          <mxGeometry x="960" y="270" width="120" height="60" as="geometry" />
        </mxCell>
        <mxCell id="TdwYZP4y8rGgzh-OMcAw-24" value="[Select &quot;standard parameters&quot; Option]&lt;br&gt;&amp;lt;&amp;lt;extend&amp;gt;&amp;gt;&lt;br&gt;(standard parameters functions)" style="text;html=1;strokeColor=none;fillColor=none;align=center;verticalAlign=middle;whiteSpace=wrap;rounded=0;" parent="1" vertex="1">
          <mxGeometry x="960" y="100" width="120" height="60" as="geometry" />
        </mxCell>
        <mxCell id="TdwYZP4y8rGgzh-OMcAw-25" value="&amp;lt;&amp;lt;include&amp;gt;&amp;gt;" style="text;html=1;strokeColor=none;fillColor=none;align=center;verticalAlign=middle;whiteSpace=wrap;rounded=0;" parent="1" vertex="1">
          <mxGeometry x="600" y="255" width="60" height="30" as="geometry" />
        </mxCell>
        <mxCell id="5PANG7gfDIuG6xv0QTRK-5" style="edgeStyle=none;curved=1;rounded=0;orthogonalLoop=1;jettySize=auto;html=1;fontSize=12;startSize=8;endSize=8;endArrow=openThin;endFill=0;exitX=1;exitY=0;exitDx=0;exitDy=0;" parent="1" source="5PANG7gfDIuG6xv0QTRK-6" edge="1">
          <mxGeometry relative="1" as="geometry">
            <mxPoint x="1230" y="-110" as="targetPoint" />
          </mxGeometry>
        </mxCell>
        <mxCell id="TdwYZP4y8rGgzh-OMcAw-28" value="View Benchmarking Results" style="ellipse;whiteSpace=wrap;html=1;" parent="1" vertex="1">
          <mxGeometry x="720" y="30" width="120" height="60" as="geometry" />
        </mxCell>
        <mxCell id="pRXhWldQeaRsTRkaZNLs-7" style="edgeStyle=orthogonalEdgeStyle;rounded=0;orthogonalLoop=1;jettySize=auto;html=1;entryX=1;entryY=0.5;entryDx=0;entryDy=0;endArrow=none;endFill=0;startArrow=block;startFill=0;" parent="1" source="5PANG7gfDIuG6xv0QTRK-6" target="pRXhWldQeaRsTRkaZNLs-1" edge="1">
          <mxGeometry relative="1" as="geometry">
            <Array as="points">
              <mxPoint x="710" y="-160" />
            </Array>
          </mxGeometry>
        </mxCell>
        <mxCell id="5PANG7gfDIuG6xv0QTRK-6" value="Export to file" style="ellipse;whiteSpace=wrap;html=1;" parent="1" vertex="1">
          <mxGeometry x="650" y="-90" width="120" height="60" as="geometry" />
        </mxCell>
        <mxCell id="5PANG7gfDIuG6xv0QTRK-8" style="edgeStyle=none;curved=0;rounded=0;orthogonalLoop=1;jettySize=auto;html=1;fontSize=12;startSize=8;endSize=8;endArrow=none;endFill=0;startArrow=block;startFill=0;" parent="1" source="5PANG7gfDIuG6xv0QTRK-7" edge="1">
          <mxGeometry relative="1" as="geometry">
            <mxPoint x="740" y="630" as="targetPoint" />
            <Array as="points">
              <mxPoint x="740" y="670" />
            </Array>
          </mxGeometry>
        </mxCell>
        <mxCell id="5PANG7gfDIuG6xv0QTRK-7" value="Export to file" style="ellipse;whiteSpace=wrap;html=1;" parent="1" vertex="1">
          <mxGeometry x="860" y="640" width="120" height="60" as="geometry" />
        </mxCell>
        <mxCell id="5PANG7gfDIuG6xv0QTRK-11" value="" style="rounded=0;whiteSpace=wrap;html=1;fillColor=none;" parent="1" vertex="1">
          <mxGeometry x="90" y="-198.75" width="1090" height="937.5" as="geometry" />
        </mxCell>
        <mxCell id="pRXhWldQeaRsTRkaZNLs-1" value="Export Key Pair (batches)" style="ellipse;whiteSpace=wrap;html=1;" parent="1" vertex="1">
          <mxGeometry x="490" y="-190" width="120" height="60" as="geometry" />
        </mxCell>
        <mxCell id="pRXhWldQeaRsTRkaZNLs-10" value="input number of trials&amp;nbsp;" style="ellipse;whiteSpace=wrap;html=1;" parent="1" vertex="1">
          <mxGeometry x="100" y="40" width="120" height="60" as="geometry" />
        </mxCell>
        <mxCell id="pRXhWldQeaRsTRkaZNLs-11" style="rounded=0;orthogonalLoop=1;jettySize=auto;html=1;exitX=0;exitY=0;exitDx=0;exitDy=0;entryX=1;entryY=1;entryDx=0;entryDy=0;endArrow=openThin;endFill=0;dashed=1;" parent="1" source="NQqdmti2_ZRtqbnhM-zB-5" target="pRXhWldQeaRsTRkaZNLs-10" edge="1">
          <mxGeometry relative="1" as="geometry">
            <mxPoint x="443.1172301198946" y="140.00318260180595" as="sourcePoint" />
            <mxPoint x="230" y="80" as="targetPoint" />
          </mxGeometry>
        </mxCell>
        <mxCell id="pRXhWldQeaRsTRkaZNLs-12" value="&amp;lt;&amp;lt;include&amp;gt;&amp;gt;" style="text;html=1;strokeColor=none;fillColor=none;align=center;verticalAlign=middle;whiteSpace=wrap;rounded=0;rotation=15;" parent="1" vertex="1">
          <mxGeometry x="234" y="100" width="60" height="30" as="geometry" />
        </mxCell>
        <mxCell id="pRXhWldQeaRsTRkaZNLs-17" value="" style="endArrow=open;html=1;rounded=0;entryX=0.5;entryY=1;entryDx=0;entryDy=0;endFill=0;" parent="1" target="pRXhWldQeaRsTRkaZNLs-10" edge="1">
          <mxGeometry width="50" height="50" relative="1" as="geometry">
            <mxPoint x="70" y="270" as="sourcePoint" />
            <mxPoint x="235" y="155" as="targetPoint" />
          </mxGeometry>
        </mxCell>
        <mxCell id="pRXhWldQeaRsTRkaZNLs-18" value="" style="endArrow=open;html=1;rounded=0;endFill=0;edgeStyle=orthogonalEdgeStyle;entryX=0;entryY=0.5;entryDx=0;entryDy=0;" parent="1" target="TdwYZP4y8rGgzh-OMcAw-1" edge="1">
          <mxGeometry width="50" height="50" relative="1" as="geometry">
            <mxPoint x="110" y="270" as="sourcePoint" />
            <mxPoint x="50" y="40" as="targetPoint" />
            <Array as="points">
              <mxPoint x="70" y="270" />
              <mxPoint x="70" y="-30" />
            </Array>
          </mxGeometry>
        </mxCell>
      </root>
    </mxGraphModel>
  </diagram>
</mxfile>
